#N canvas 0 156 1360 744 10;
#X obj 106 204 inlet;
#X text 161 204 trigger sound (float pitch);
#X obj 594 373 myCounter \$2;
#X obj 594 352 until;
#X obj 594 332 f \$2;
#X msg 106 593 \; \$1 \$2;
#X obj 106 560 pack s f;
#X obj 647 494 symbol \$1;
#X msg 537 286 clear;
#X obj 594 241 t b b;
#X obj 675 415 del 1;
#X obj 675 394 bng 15 250 50 0 empty empty empty 17 7 0 10 -262144
-1 -1;
#X obj 106 385 t b f;
#X obj 166 415 f \$2;
#X obj 106 460 mycounter;
#X obj 166 438 - 1;
#X text 182 461 <- switch between sample players;
#X text 164 605 A dynamic \, addressable [send];
#X text 558 54 Create the samplers;
#X text 603 287 <- clear subpatch first \, then...;
#X text 695 373 create n samplers;
#X text 718 675 <- samplers go here;
#X text 106 30 CREATE POLY;
#X text 106 60 1st argument: < name of soundfile >;
#X text 107 80 2nd argument: < number of polyphony >;
#N canvas 189 147 601 753 \$0-samplePool 0;
#X obj 10 0 playSound ../sounds/soundToo.wav 1655-ID0 1655-vol 1655-init
44100;
#X obj 10 20 playSound ../sounds/soundToo.wav 1655-ID1 1655-vol 1655-init
44100;
#X obj 10 40 playSound ../sounds/soundToo.wav 1655-ID2 1655-vol 1655-init
44100;
#X obj 10 60 playSound ../sounds/soundToo.wav 1655-ID3 1655-vol 1655-init
44100;
#X obj 10 80 playSound ../sounds/soundToo.wav 1655-ID4 1655-vol 1655-init
44100;
#X obj 10 100 playSound ../sounds/soundToo.wav 1655-ID5 1655-vol 1655-init
44100;
#X obj 10 120 playSound ../sounds/soundToo.wav 1655-ID6 1655-vol 1655-init
44100;
#X obj 10 140 playSound ../sounds/soundToo.wav 1655-ID7 1655-vol 1655-init
44100;
#X obj 10 160 playSound ../sounds/soundToo.wav 1655-ID8 1655-vol 1655-init
44100;
#X obj 10 180 playSound ../sounds/soundToo.wav 1655-ID9 1655-vol 1655-init
44100;
#X restore 594 673 pd \$0-samplePool;
#X obj 594 628 s pd-\$0-samplePool;
#X obj 106 488 makefilename \$0-ID%d;
#X obj 987 144 inlet;
#X obj 987 382 s~ \$0-vol;
#X obj 987 360 line~;
#X msg 997 337 1 5;
#X text 105 113 1st inlet: trigger & pitch < float >;
#X text 105 133 2nd inlet: volume < float >;
#X text 952 116 Set Volume ( 0-1 );
#X obj 720 494 makefilename \$0-ID%d;
#X obj 868 494 makefilename \$0-vol;
#X obj 1012 494 makefilename \$0-init;
#X obj 675 437 s \$0-init;
#X msg 594 593 obj 10 \$1 playSound \$2 \$3 \$4 \$5 \$6;
#X obj 594 568 pack f s s s s f;
#X obj 594 459 t f b f f f f;
#X obj 997 316 loadbang;
#X obj 594 78 loadbang;
#X obj 166 394 loadbang;
#X obj 626 119 f \$3;
#X obj 594 98 t b b;
#X obj 626 139 > 0;
#X obj 626 158 s \$0-samplerate;
#X obj 1211 471 r \$0-samplerate;
#N canvas 412 349 672 402 samplerate-switch 0;
#X obj 91 61 inlet;
#X obj 410 60 inlet;
#X obj 109 351 outlet;
#X obj 109 187 spigot;
#X text 148 62 trigger;
#X text 464 81 check if 3rd argument exist;
#X obj 213 187 spigot;
#X obj 109 246 f 44100;
#X text 176 248 <- original samplerate \, if no 3rd argument given
;
#X obj 109 224 bng 15 250 50 0 empty empty empty 17 7 0 10 -262144
-1 -1;
#X obj 213 296 f \$3;
#X text 264 298 <- desired samplerate if 3rd argument is given;
#X obj 213 275 bng 15 250 50 0 empty empty empty 17 7 0 10 -262144
-1 -1;
#X text 462 101 (aka > 0);
#X msg 344 149 1;
#X msg 376 149 0;
#X obj 276 125 t b b;
#X obj 410 85 sel 1;
#X msg 308 150 1;
#X msg 276 150 0;
#X obj 344 125 t b b;
#X connect 0 0 3 0;
#X connect 0 0 6 0;
#X connect 1 0 17 0;
#X connect 3 0 9 0;
#X connect 6 0 12 0;
#X connect 7 0 2 0;
#X connect 9 0 7 0;
#X connect 10 0 2 0;
#X connect 12 0 10 0;
#X connect 14 0 3 1;
#X connect 15 0 6 1;
#X connect 16 0 18 0;
#X connect 16 1 19 0;
#X connect 17 0 16 0;
#X connect 17 1 20 0;
#X connect 18 0 6 1;
#X connect 19 0 3 1;
#X connect 20 0 14 0;
#X connect 20 1 15 0;
#X restore 1162 494 pd samplerate-switch;
#X obj 594 495 * 40;
#X connect 0 0 12 0;
#X connect 2 0 41 0;
#X connect 2 1 11 0;
#X connect 3 0 2 0;
#X connect 4 0 3 0;
#X connect 6 0 5 0;
#X connect 7 0 40 1;
#X connect 8 0 26 0;
#X connect 9 0 4 0;
#X connect 9 1 8 0;
#X connect 10 0 38 0;
#X connect 11 0 10 0;
#X connect 12 0 14 0;
#X connect 12 1 6 1;
#X connect 13 0 15 0;
#X connect 14 0 27 0;
#X connect 15 0 14 1;
#X connect 27 0 6 0;
#X connect 28 0 30 0;
#X connect 30 0 29 0;
#X connect 31 0 30 0;
#X connect 35 0 40 2;
#X connect 36 0 40 3;
#X connect 37 0 40 4;
#X connect 39 0 26 0;
#X connect 40 0 39 0;
#X connect 41 0 51 0;
#X connect 41 1 7 0;
#X connect 41 2 35 0;
#X connect 41 3 36 0;
#X connect 41 4 37 0;
#X connect 41 5 50 0;
#X connect 42 0 31 0;
#X connect 43 0 46 0;
#X connect 44 0 13 0;
#X connect 45 0 47 0;
#X connect 46 0 9 0;
#X connect 46 1 45 0;
#X connect 47 0 48 0;
#X connect 49 0 50 1;
#X connect 50 0 40 5;
#X connect 51 0 40 0;
